<mxfile host="app.diagrams.net">
  <diagram name="MLP Architecture">
    <mxGraphModel dx="1000" dy="1000" grid="1" gridSize="10" guides="1" tooltips="1" connect="1" arrows="1" fold="1" page="1" pageScale="1" pageWidth="850" pageHeight="1100" math="0" shadow="0">
      <root>
        <mxCell id="0" />
        <mxCell id="1" parent="0" />
        <!-- Input Layer (круглые нейроны) -->
        <mxCell id="in1" value="Input 1" style="ellipse;shape=ellipse;aspect=fixed;perimeter=ellipsePerimeter;fillColor=#dae8fc;strokeColor=#6c8ebf;" vertex="1" parent="1">
          <mxGeometry x="60" y="60" width="40" height="40" as="geometry" />
        </mxCell>
        <mxCell id="in2" value="Input 2" style="ellipse;shape=ellipse;aspect=fixed;perimeter=ellipsePerimeter;fillColor=#dae8fc;strokeColor=#6c8ebf;" vertex="1" parent="1">
          <mxGeometry x="60" y="120" width="40" height="40" as="geometry" />
        </mxCell>
        <mxCell id="in3" value="Input 3" style="ellipse;shape=ellipse;aspect=fixed;perimeter=ellipsePerimeter;fillColor=#dae8fc;strokeColor=#6c8ebf;" vertex="1" parent="1">
          <mxGeometry x="60" y="180" width="40" height="40" as="geometry" />
        </mxCell>
        <mxCell id="in4" value="Input 4" style="ellipse;shape=ellipse;aspect=fixed;perimeter=ellipsePerimeter;fillColor=#dae8fc;strokeColor=#6c8ebf;" vertex="1" parent="1">
          <mxGeometry x="60" y="240" width="40" height="40" as="geometry" />
        </mxCell>
        <mxCell id="in5" value="Input 5" style="ellipse;shape=ellipse;aspect=fixed;perimeter=ellipsePerimeter;fillColor=#dae8fc;strokeColor=#6c8ebf;" vertex="1" parent="1">
          <mxGeometry x="60" y="300" width="40" height="40" as="geometry" />
        </mxCell>
        <mxCell id="in6" value="Input 6" style="ellipse;shape=ellipse;aspect=fixed;perimeter=ellipsePerimeter;fillColor=#dae8fc;strokeColor=#6c8ebf;" vertex="1" parent="1">
          <mxGeometry x="60" y="360" width="40" height="40" as="geometry" />
        </mxCell>
        <!-- Hidden Layer 1 (круглые нейроны) -->
        <mxCell id="h1_1" value="Hidden 1-1" style="ellipse;shape=ellipse;aspect=fixed;perimeter=ellipsePerimeter;fillColor=#e1d5e7;strokeColor=#9673a6;" vertex="1" parent="1">
          <mxGeometry x="180" y="80" width="40" height="40" as="geometry" />
        </mxCell>
        <mxCell id="h1_2" value="Hidden 1-2" style="ellipse;shape=ellipse;aspect=fixed;perimeter=ellipsePerimeter;fillColor=#e1d5e7;strokeColor=#9673a6;" vertex="1" parent="1">
          <mxGeometry x="180" y="160" width="40" height="40" as="geometry" />
        </mxCell>
        <mxCell id="h1_3" value="Hidden 1-3" style="ellipse;shape=ellipse;aspect=fixed;perimeter=ellipsePerimeter;fillColor=#e1d5e7;strokeColor=#9673a6;" vertex="1" parent="1">
          <mxGeometry x="180" y="240" width="40" height="40" as="geometry" />
        </mxCell>
        <mxCell id="h1_4" value="Hidden 1-4" style="ellipse;shape=ellipse;aspect=fixed;perimeter=ellipsePerimeter;fillColor=#e1d5e7;strokeColor=#9673a6;" vertex="1" parent="1">
          <mxGeometry x="180" y="320" width="40" height="40" as="geometry" />
        </mxCell>
        <!-- Hidden Layer 2 (круглые нейроны) -->
        <mxCell id="h2_1" value="Hidden 2-1" style="ellipse;shape=ellipse;aspect=fixed;perimeter=ellipsePerimeter;fillColor=#ffe6cc;strokeColor=#d79b00;" vertex="1" parent="1">
          <mxGeometry x="300" y="100" width="40" height="40" as="geometry" />
        </mxCell>
        <mxCell id="h2_2" value="Hidden 2-2" style="ellipse;shape=ellipse;aspect=fixed;perimeter=ellipsePerimeter;fillColor=#ffe6cc;strokeColor=#d79b00;" vertex="1" parent="1">
          <mxGeometry x="300" y="180" width="40" height="40" as="geometry" />
        </mxCell>
        <mxCell id="h2_3" value="Hidden 2-3" style="ellipse;shape=ellipse;aspect=fixed;perimeter=ellipsePerimeter;fillColor=#ffe6cc;strokeColor=#d79b00;" vertex="1" parent="1">
          <mxGeometry x="300" y="260" width="40" height="40" as="geometry" />
        </mxCell>
        <mxCell id="h2_4" value="Hidden 2-4" style="ellipse;shape=ellipse;aspect=fixed;perimeter=ellipsePerimeter;fillColor=#ffe6cc;strokeColor=#d79b00;" vertex="1" parent="1">
          <mxGeometry x="300" y="340" width="40" height="40" as="geometry" />
        </mxCell>
        <!-- Output Layer (круглый нейрон) -->
        <mxCell id="out1" value="Output" style="ellipse;shape=ellipse;aspect=fixed;perimeter=ellipsePerimeter;fillColor=#d5e8d4;strokeColor=#82b366;" vertex="1" parent="1">
          <mxGeometry x="420" y="200" width="40" height="40" as="geometry" />
        </mxCell>
        <!-- Прямые стрелки Input -> Hidden 1 -->
        <mxCell id="e1" style="endArrow=block;" edge="1" parent="1" source="in1" target="h1_1"><mxGeometry relative="1" as="geometry" /></mxCell>
        <mxCell id="e2" style="endArrow=block;" edge="1" parent="1" source="in1" target="h1_2"><mxGeometry relative="1" as="geometry" /></mxCell>
        <mxCell id="e3" style="endArrow=block;" edge="1" parent="1" source="in1" target="h1_3"><mxGeometry relative="1" as="geometry" /></mxCell>
        <mxCell id="e4" style="endArrow=block;" edge="1" parent="1" source="in1" target="h1_4"><mxGeometry relative="1" as="geometry" /></mxCell>
        <mxCell id="e5" style="endArrow=block;" edge="1" parent="1" source="in2" target="h1_1"><mxGeometry relative="1" as="geometry" /></mxCell>
        <mxCell id="e6" style="endArrow=block;" edge="1" parent="1" source="in2" target="h1_2"><mxGeometry relative="1" as="geometry" /></mxCell>
        <mxCell id="e7" style="endArrow=block;" edge="1" parent="1" source="in2" target="h1_3"><mxGeometry relative="1" as="geometry" /></mxCell>
        <mxCell id="e8" style="endArrow=block;" edge="1" parent="1" source="in2" target="h1_4"><mxGeometry relative="1" as="geometry" /></mxCell>
        <mxCell id="e9" style="endArrow=block;" edge="1" parent="1" source="in3" target="h1_1"><mxGeometry relative="1" as="geometry" /></mxCell>
        <mxCell id="e10" style="endArrow=block;" edge="1" parent="1" source="in3" target="h1_2"><mxGeometry relative="1" as="geometry" /></mxCell>
        <mxCell id="e11" style="endArrow=block;" edge="1" parent="1" source="in3" target="h1_3"><mxGeometry relative="1" as="geometry" /></mxCell>
        <mxCell id="e12" style="endArrow=block;" edge="1" parent="1" source="in3" target="h1_4"><mxGeometry relative="1" as="geometry" /></mxCell>
        <mxCell id="e13" style="endArrow=block;" edge="1" parent="1" source="in4" target="h1_1"><mxGeometry relative="1" as="geometry" /></mxCell>
        <mxCell id="e14" style="endArrow=block;" edge="1" parent="1" source="in4" target="h1_2"><mxGeometry relative="1" as="geometry" /></mxCell>
        <mxCell id="e15" style="endArrow=block;" edge="1" parent="1" source="in4" target="h1_3"><mxGeometry relative="1" as="geometry" /></mxCell>
        <mxCell id="e16" style="endArrow=block;" edge="1" parent="1" source="in4" target="h1_4"><mxGeometry relative="1" as="geometry" /></mxCell>
        <mxCell id="e17" style="endArrow=block;" edge="1" parent="1" source="in5" target="h1_1"><mxGeometry relative="1" as="geometry" /></mxCell>
        <mxCell id="e18" style="endArrow=block;" edge="1" parent="1" source="in5" target="h1_2"><mxGeometry relative="1" as="geometry" /></mxCell>
        <mxCell id="e19" style="endArrow=block;" edge="1" parent="1" source="in5" target="h1_3"><mxGeometry relative="1" as="geometry" /></mxCell>
        <mxCell id="e20" style="endArrow=block;" edge="1" parent="1" source="in5" target="h1_4"><mxGeometry relative="1" as="geometry" /></mxCell>
        <mxCell id="e21" style="endArrow=block;" edge="1" parent="1" source="in6" target="h1_1"><mxGeometry relative="1" as="geometry" /></mxCell>
        <mxCell id="e22" style="endArrow=block;" edge="1" parent="1" source="in6" target="h1_2"><mxGeometry relative="1" as="geometry" /></mxCell>
        <mxCell id="e23" style="endArrow=block;" edge="1" parent="1" source="in6" target="h1_3"><mxGeometry relative="1" as="geometry" /></mxCell>
        <mxCell id="e24" style="endArrow=block;" edge="1" parent="1" source="in6" target="h1_4"><mxGeometry relative="1" as="geometry" /></mxCell>
        <!-- Прямые стрелки Hidden 1 -> Hidden 2 -->
        <mxCell id="e25" style="endArrow=block;" edge="1" parent="1" source="h1_1" target="h2_1"><mxGeometry relative="1" as="geometry" /></mxCell>
        <mxCell id="e26" style="endArrow=block;" edge="1" parent="1" source="h1_1" target="h2_2"><mxGeometry relative="1" as="geometry" /></mxCell>
        <mxCell id="e27" style="endArrow=block;" edge="1" parent="1" source="h1_1" target="h2_3"><mxGeometry relative="1" as="geometry" /></mxCell>
        <mxCell id="e28" style="endArrow=block;" edge="1" parent="1" source="h1_1" target="h2_4"><mxGeometry relative="1" as="geometry" /></mxCell>
        <mxCell id="e29" style="endArrow=block;" edge="1" parent="1" source="h1_2" target="h2_1"><mxGeometry relative="1" as="geometry" /></mxCell>
        <mxCell id="e30" style="endArrow=block;" edge="1" parent="1" source="h1_2" target="h2_2"><mxGeometry relative="1" as="geometry" /></mxCell>
        <mxCell id="e31" style="endArrow=block;" edge="1" parent="1" source="h1_2" target="h2_3"><mxGeometry relative="1" as="geometry" /></mxCell>
        <mxCell id="e32" style="endArrow=block;" edge="1" parent="1" source="h1_2" target="h2_4"><mxGeometry relative="1" as="geometry" /></mxCell>
        <mxCell id="e33" style="endArrow=block;" edge="1" parent="1" source="h1_3" target="h2_1"><mxGeometry relative="1" as="geometry" /></mxCell>
        <mxCell id="e34" style="endArrow=block;" edge="1" parent="1" source="h1_3" target="h2_2"><mxGeometry relative="1" as="geometry" /></mxCell>
        <mxCell id="e35" style="endArrow=block;" edge="1" parent="1" source="h1_3" target="h2_3"><mxGeometry relative="1" as="geometry" /></mxCell>
        <mxCell id="e36" style="endArrow=block;" edge="1" parent="1" source="h1_3" target="h2_4"><mxGeometry relative="1" as="geometry" /></mxCell>
        <mxCell id="e37" style="endArrow=block;" edge="1" parent="1" source="h1_4" target="h2_1"><mxGeometry relative="1" as="geometry" /></mxCell>
        <mxCell id="e38" style="endArrow=block;" edge="1" parent="1" source="h1_4" target="h2_2"><mxGeometry relative="1" as="geometry" /></mxCell>
        <mxCell id="e39" style="endArrow=block;" edge="1" parent="1" source="h1_4" target="h2_3"><mxGeometry relative="1" as="geometry" /></mxCell>
        <mxCell id="e40" style="endArrow=block;" edge="1" parent="1" source="h1_4" target="h2_4"><mxGeometry relative="1" as="geometry" /></mxCell>
        <!-- Прямые стрелки Hidden 2 -> Output -->
        <mxCell id="e41" style="endArrow=block;" edge="1" parent="1" source="h2_1" target="out1"><mxGeometry relative="1" as="geometry" /></mxCell>
        <mxCell id="e42" style="endArrow=block;" edge="1" parent="1" source="h2_2" target="out1"><mxGeometry relative="1" as="geometry" /></mxCell>
        <mxCell id="e43" style="endArrow=block;" edge="1" parent="1" source="h2_3" target="out1"><mxGeometry relative="1" as="geometry" /></mxCell>
        <mxCell id="e44" style="endArrow=block;" edge="1" parent="1" source="h2_4" target="out1"><mxGeometry relative="1" as="geometry" /></mxCell>
      </root>
    </mxGraphModel>
  </diagram>
</mxfile>
